<?xml version="1.0" encoding="UTF-8"?>
<svg id="Layer_1" data-name="Layer 1" xmlns="http://www.w3.org/2000/svg" viewBox="0 0 384 384">
  <defs>
    <style>
      .cls-1 {
        fill: none;
      }
    </style>
  </defs>
  <path d="M384,129.75v17.25c-1.12,4.95-1.54,10.03-2.62,15.01-15.57,71.68-103.97,143.53-163.14,181.8-5.78,3.74-12.92,8.87-18.93,11.81-4.32,2.11-6.5,3.04-11.54,1.54-4.27-1.28-15.19-9.02-19.64-11.85C110.47,308.58,25.58,240.29,5.37,172.89L.13,148.5c.3-5.89-.41-12.16,0-18C6.92,34.53,121.12-13.81,183.8,65.64c1.36,1.73,7.21,11.44,7.9,11.61,1.04.25,1.28-.62,1.75-1.24,11.79-15.87,19.52-26.62,37.38-36.86,70.09-40.19,147.82,15.46,153.18,90.6Z"/>
  <path class="cls-1" d="M384,147v237H.13v-235.5l5.24,24.39c20.21,67.4,105.11,135.69,162.77,172.42,4.45,2.84,15.37,10.58,19.64,11.85,5.04,1.5,7.22.57,11.54-1.54,6.01-2.94,13.15-8.08,18.93-11.81,59.17-38.28,147.57-110.12,163.14-181.8,1.08-4.98,1.5-10.05,2.62-15.01Z"/>
  <path class="cls-1" d="M.13,130.5V0h383.87v129.75C378.65,54.61,300.91-1.05,230.82,39.15c-17.86,10.24-25.58,21-37.38,36.86-.46.62-.71,1.49-1.75,1.24-.68-.17-6.53-9.88-7.9-11.61C121.12-13.81,6.92,34.53.13,130.5Z"/>
</svg>