<?xml version="1.0" encoding="UTF-8"?>
<svg id="Layer_1" data-name="Layer 1" xmlns="http://www.w3.org/2000/svg" viewBox="0 0 368.64 368.64">
  <defs>
    <style>
      .cls-1 {
        fill: none;
      }
      .cls-2 {
        opacity:1;
      }
    </style>
  </defs>
  <path class="cls-1" d="M368.64,188.27v180.37H0V0h368.64v183.96c-1.11-2.24-2.51-3.71-4.3-5.4-13.7-12.93-31.35-24-44.9-37.02-.89-.85-2.8-2.3-3.11-3.36l-.12-91.86c-.19-5.48-3.16-7.71-8.3-8.23-10.2-1.03-31.4-.94-41.7-.04-1.74.15-4.21.56-5.63,1.56-.46.32-2.6,2.94-2.6,3.15v47.07c-18.25-13.42-34.86-30.04-52.83-43.82-25.05-19.21-38.08-2.17-57.45,13.65C98.85,99.57,51.09,140.86,2.49,181.06c-1.84,2.31-2.26,4.97-1.2,7.73,2.04,5.33,12.63,13.87,15.94,19.27,3.27,2.62,7.26,2.23,10.44-.39L184.43,76.95l158.11,131.33c2.96,2.07,6.17,2.1,9.22.12l16.88-20.12ZM214.14,330.55h88.75c5.34,0,12.89-7.05,13.23-12.64l-.29-113.12-130.92-107.67L53.53,204.79l-.34,111.74c.44,5.16,3.28,9.81,7.96,12.16.7.35,4.95,1.86,5.32,1.86h88.75v-87.67h58.92v87.67Z"/>
  <path d="M368.64,188.27l-16.88,20.12c-3.05,1.98-6.26,1.94-9.22-.12L184.43,76.95,27.66,207.67c-3.18,2.62-7.17,3.01-10.44.39-3.31-5.4-13.9-13.94-15.94-19.27-1.06-2.77-.64-5.42,1.2-7.73,48.6-40.2,96.36-81.49,145.2-121.4,19.37-15.83,32.4-32.86,57.45-13.65,17.97,13.78,34.58,30.4,52.83,43.82v-47.07c0-.2,2.14-2.82,2.6-3.15,1.42-1,3.89-1.4,5.63-1.56,10.3-.9,31.5-.99,41.7.04,5.14.52,8.11,2.75,8.3,8.23l.12,91.86c.31,1.06,2.22,2.51,3.11,3.36,13.55,13.02,31.2,24.09,44.9,37.02,1.79,1.69,3.2,3.15,4.3,5.4v4.31Z"/>
  <path d="M214.14,330.55v-87.67h-58.92v87.67h-88.75c-.38,0-4.62-1.51-5.32-1.86-4.68-2.35-7.52-7-7.96-12.16l.34-111.74,131.38-107.67,130.92,107.67.29,113.12c-.34,5.58-7.89,12.64-13.23,12.64h-88.75Z"/>
</svg>